<?xml version="1.0" encoding="UTF-8" standalone="no"?>
<!-- Created with Inkscape (http://www.inkscape.org/) -->

<svg
   width="210mm"
   height="297mm"
   viewBox="0 0 210 297"
   version="1.1"
   id="svg5"
   inkscape:version="1.1.2 (0a00cf5339, 2022-02-04)"
   sodipodi:docname="blob.svg"
   xmlns:inkscape="http://www.inkscape.org/namespaces/inkscape"
   xmlns:sodipodi="http://sodipodi.sourceforge.net/DTD/sodipodi-0.dtd"
   xmlns="http://www.w3.org/2000/svg"
   xmlns:svg="http://www.w3.org/2000/svg">
  <sodipodi:namedview
     id="namedview7"
     pagecolor="#ffffff"
     bordercolor="#666666"
     borderopacity="1.0"
     inkscape:pageshadow="2"
     inkscape:pageopacity="0.0"
     inkscape:pagecheckerboard="0"
     inkscape:document-units="mm"
     showgrid="false"
     inkscape:zoom="1.0633188"
     inkscape:cx="395.45996"
     inkscape:cy="455.64888"
     inkscape:window-width="1846"
     inkscape:window-height="1016"
     inkscape:window-x="1354"
     inkscape:window-y="27"
     inkscape:window-maximized="1"
     inkscape:current-layer="layer1" />
  <defs
     id="defs2" />
  <g
     inkscape:label="Layer 1"
     inkscape:groupmode="layer"
     id="layer1">
    <path
       id="path2399"
       style="fill:#00ffff;stroke:none;stroke-width:0.999999px;stroke-linecap:butt;stroke-linejoin:miter;stroke-opacity:1"
       d="M 453.0293 215.50195 C 444.47508 215.49085 431.33336 217.56594 426.91211 218.81055 C 421.69031 219.2867 417.61632 218.91532 412.74609 220.14062 C 410.192 220.78322 394.06445 239.52668 392.92383 241.42773 C 392.84219 241.56384 389.58272 250.98973 388.93555 252.06836 C 388.03088 253.57614 385.40354 255.57105 384.94531 257.38672 C 384.1987 260.34526 384.9484 265.32545 386.27539 267.97852 C 388.28213 271.99201 400.9882 275.98566 404.8457 277.27148 C 407.00408 277.99096 413.24666 282.87282 413.98242 285.08008 C 415.38735 289.29492 416.62426 318.33353 415.3125 320.95703 C 414.47133 322.63936 412.36756 323.38226 411.32422 324.94727 C 405.95963 332.9941 413.25226 325.47815 408.66406 331.5957 C 405.23493 336.16789 399.27833 339.72656 396.69336 344.89648 C 394.42734 349.42857 393.99411 372.70891 395.36328 376.81641 C 396.72618 380.90521 402.06628 387.44997 406.00391 390.11719 C 408.67437 391.92607 425.13628 389.00557 428.08008 388.78711 C 444.64771 387.55759 471.22377 384.47947 487.46289 388.53906 C 495.27506 390.4921 514.8922 401.43724 522.23828 397.90625 C 524.98906 396.58406 523.20845 389.54526 523.46875 387.46289 C 524.62306 378.22845 527.38971 364.69243 523.46875 355.57617 C 522.97333 354.42427 521.36936 354.03952 520.80859 352.91797 C 519.06956 349.43987 520.10941 346.87572 518.14844 343.60742 C 517.50327 342.53218 515.88785 342.13582 515.48828 340.94727 C 513.78885 335.89242 515.48828 325.93973 515.48828 320.76953 C 515.48828 302.31412 530.10609 292.3759 543.47266 283.46484 C 555.33425 275.55712 558.40949 256.38911 556.79688 243.48828 C 554.44964 224.7103 528.85596 238.24773 518.85352 239.49805 C 515.33425 239.93795 511.67445 238.72573 508.21289 239.49805 C 492.49255 243.00547 510.30887 242.18164 494.85352 242.18164 C 482.47503 242.18164 468.6249 244.37384 462.9668 230.22852 C 461.94477 227.67354 462.7223 217.67481 459.5625 216.31641 C 458.22373 215.74087 455.8807 215.50565 453.0293 215.50195 z "
       transform="scale(0.26458333)" />
    <path
       style="fill:#00ffff;stroke:none;stroke-width:0.264583px;stroke-linecap:butt;stroke-linejoin:miter;stroke-opacity:1"
       d="m 144.8499,135.39867 c -1.50014,0.69989 -6.13156,1.04049 -7.07099,2.4393 -0.14373,0.214 -0.31522,0.43349 -0.3519,0.68865 -0.10017,0.69689 -0.36611,9.63801 0,10.17473 0.18579,0.27238 0.55157,0.40472 0.69941,0.69941 0.16605,0.331 0.0846,2.60705 0,2.77621 -0.35926,0.71853 -2.0839,3.9341 -2.44669,4.20619 -0.29674,0.22256 -0.72392,0.18601 -1.05569,0.35189 -0.37374,0.18687 -3.24593,4.24617 -3.51453,4.91767 -0.44378,1.10945 0,3.48123 0,4.60038 0,1.95075 0.1583,3.92718 1.06338,5.71689 1.19656,2.36608 3.96378,6.2129 6.58215,7.33506 1.37252,0.58823 5.26352,1.20885 6.31647,2.11137 2.1292,1.82504 3.23455,4.78802 5.07383,6.86841 2.61269,2.95518 4.58309,4.66084 8.63687,4.66084 2.29549,0 3.18351,0.15723 5.31529,-0.35853 5.74426,-1.38976 9.62868,-3.82702 9.62868,-9.91997 0,-0.96162 0.28229,-2.91152 -0.34752,-3.85326 -0.73707,-1.10213 -1.92884,-1.57694 -2.81516,-2.46327 -0.70637,-0.70636 -1.6513,-2.13626 -1.76601,-3.18334 -0.16249,-1.4833 -0.38041,-6.03359 0,-7.42843 0.73882,-2.70899 2.90414,-4.59789 4.57464,-6.68602 0.41452,-0.51814 1.0662,-0.8386 1.40759,-1.40758 0.38168,-0.63614 0.37202,-1.44783 0.70379,-2.11137 1.17411,-2.34823 1.40758,-4.0052 1.40758,-6.68602 0,-0.58649 0.16924,-1.19794 0,-1.75948 -2.6e-4,-0.001 -2.12427,-3.54034 -2.12769,-3.54514 -1.36297,-1.90762 -3.46232,0.1121 -4.63152,0.34418 -1.65106,0.32774 -7.70777,0.83241 -9.14929,0.3519 -1.54187,-0.51396 -3.10029,-1.72609 -4.57465,-2.46327 -0.79346,-0.39673 -1.71582,-0.49732 -2.45446,-1.05128 -1.05275,-0.78954 -1.82819,-2.36072 -2.986,-2.98605 -0.43277,-0.23373 -1.28861,-0.0447 -1.69148,-0.32131 -1.30292,-0.89453 -2.77228,-1.42329 -4.4261,-2.01876 z"
       id="path1713" />
  </g>
</svg>
